PathFileType	4	(X/Y/Z)	Kaydara	
DataRate	CameraRate	NumFrames	NumMarkers	Units	OrigDataRate	OrigDataStartFrame	OrigNumFrames	
240.00	240.00	4	72	mm	240.00	135	359	
Frame#	Time	Hips			RightUpLeg			RightLeg			RightFoot			RightFoot_End			LeftUpLeg			LeftLeg			LeftFoot			LeftFoot_End			Spine			Spine1			Spine2			Spine3			Neck			Head			Head_End			RightShoulder			RightArm			RightForeArm			RightHand			RightHandThumb1			RightHandThumb2			RightHandThumb3			RightHandThumb3_End			RightInHandIndex			RightHandIndex1			RightHandIndex2			RightHandIndex3			RightHandIndex3_End			RightInHandMiddle			RightHandMiddle1			RightHandMiddle2			RightHandMiddle3			RightHandMiddle3_End			RightInHandRing			RightHandRing1			RightHandRing2			RightHandRing3			RightHandRing3_End			RightInHandPinky			RightHandPinky1			RightHandPinky2			RightHandPinky3			RightHandPinky3_End			LeftShoulder			LeftArm			LeftForeArm			LeftHand			LeftHandThumb1			LeftHandThumb2			LeftHandThumb3			LeftHandThumb3_End			LeftInHandIndex			LeftHandIndex1			LeftHandIndex2			LeftHandIndex3			LeftHandIndex3_End			LeftInHandMiddle			LeftHandMiddle1			LeftHandMiddle2			LeftHandMiddle3			LeftHandMiddle3_End			LeftInHandRing			LeftHandRing1			LeftHandRing2			LeftHandRing3			LeftHandRing3_End			LeftInHandPinky			LeftHandPinky1			LeftHandPinky2			LeftHandPinky3			LeftHandPinky3_End			
		X1	Y1	Z1	X2	Y2	Z2	X3	Y3	Z3	X4	Y4	Z4	X5	Y5	Z5	X6	Y6	Z6	X7	Y7	Z7	X8	Y8	Z8	X9	Y9	Z9	X10	Y10	Z10	X11	Y11	Z11	X12	Y12	Z12	X13	Y13	Z13	X14	Y14	Z14	X15	Y15	Z15	X16	Y16	Z16	X17	Y17	Z17	X18	Y18	Z18	X19	Y19	Z19	X20	Y20	Z20	X21	Y21	Z21	X22	Y22	Z22	X23	Y23	Z23	X24	Y24	Z24	X25	Y25	Z25	X26	Y26	Z26	X27	Y27	Z27	X28	Y28	Z28	X29	Y29	Z29	X30	Y30	Z30	X31	Y31	Z31	X32	Y32	Z32	X33	Y33	Z33	X34	Y34	Z34	X35	Y35	Z35	X36	Y36	Z36	X37	Y37	Z37	X38	Y38	Z38	X39	Y39	Z39	X40	Y40	Z40	X41	Y41	Z41	X42	Y42	Z42	X43	Y43	Z43	X44	Y44	Z44	X45	Y45	Z45	X46	Y46	Z46	X47	Y47	Z47	X48	Y48	Z48	X49	Y49	Z49	X50	Y50	Z50	X51	Y51	Z51	X52	Y52	Z52	X53	Y53	Z53	X54	Y54	Z54	X55	Y55	Z55	X56	Y56	Z56	X57	Y57	Z57	X58	Y58	Z58	X59	Y59	Z59	X60	Y60	Z60	X61	Y61	Z61	X62	Y62	Z62	X63	Y63	Z63	X64	Y64	Z64	X65	Y65	Z65	X66	Y66	Z66	X67	Y67	Z67	X68	Y68	Z68	X69	Y69	Z69	X70	Y70	Z70	X71	Y71	Z71	X72	Y72	Z72	

135	0.558	1198.941	914.58397	126.699	1253.9333419840507	896.7966130703444	53.116776865448564	1158.7007484789456	500.3513265728766	-43.12914133050639	1141.394850528509	108.87460078318391	-118.82628773966415	989.8412234642377	32.16596366132965	-31.159806957424784	1158.2943985324625	906.2009982354563	211.59441036850842	1066.7747850138683	504.3057516234629	285.835689132559	993.4044016947635	79.92907925784924	375.9260137711643	871.8569759316067	-2.4174278922574857	253.51647767400118	1132.1369555757046	1032.0775126042984	79.51862965157392	1070.3981974573446	1088.4751149491399	30.041701496309134	1003.2970965972838	1140.1670961246684	-25.304954418024835	935.5716420838529	1178.1456189626754	-83.66932338570562	862.0542133469869	1219.1895161089328	-144.34677961675055	793.4316694722891	1256.942869447598	-196.998512833165	654.2944961198107	1334.3131592112723	-205.5740926986812	906.6045175538816	1205.9269155560055	-148.10529119297374	964.5350403091527	1189.7952134456148	-259.48523384267764	1035.4415739339224	938.33049932234	-279.51247273010284	1038.315050090551	813.505543557762	-475.1435121186736	1044.6409278220056	826.9248016235872	-499.8847545566365	1029.8817016831615	832.1024485654058	-525.5869867398585	1019.4983620074163	832.3641453057764	-543.5940663010457	1010.7523876982401	829.7215892917746	-558.6982044027387	1047.0842462025594	816.0575440543867	-502.93434363703795	1050.3972603216018	808.0355894389629	-544.1084652315537	1040.7411048851895	803.0464323658626	-570.6658813657577	1028.0005358214098	803.616830371756	-582.7432967650628	1012.9106346411887	806.5659202214268	-589.749359179401	1046.1147671003725	807.2697756214019	-501.6954629462369	1048.825206622219	794.6919344833003	-541.1859622607252	1038.1348089319604	788.1150048788321	-569.8657475082064	1022.6900417013827	788.2595937409696	-584.2928956702734	1006.1431182456645	791.2221957212075	-591.8888901780108	1045.4667227723671	801.2364460632506	-499.7996823754337	1047.6885345551718	784.6405687896084	-533.6336623357047	1038.208132926319	777.7704493557304	-558.262236834341	1023.2240565474965	777.3057564552885	-571.9824879673342	1007.6248313850421	779.8050600270639	-579.0318122906134	1043.6672373895483	794.7473595616527	-496.18408572092096	1045.004224641414	775.4237009470772	-525.1019760693397	1037.1483735097859	768.220083723262	-544.1004350465024	1026.0910935580648	767.0576954495991	-553.7582210732761	1012.1991351526432	768.7977609131403	-559.8014307601876	866.2594486658169	1205.3672594996722	-99.10120704022435	815.9925214151765	1148.0967279549945	2.3546660607125807	942.6753939523196	987.39547895015	-161.45844530917438	1028.9330565202827	871.8214773930089	-366.4860000793253	1054.70649030728	882.1010626764537	-383.3460319375748	1089.8774487087414	872.5761594598042	-392.30932688712153	1113.5656458843016	862.8575081772648	-399.45918141836694	1132.6249319215533	852.1159311987703	-406.1963226195643	1053.4043861020168	873.0932512275858	-389.5908451573553	1091.2038535896697	858.7856727052064	-422.01624685863345	1121.6833001642667	842.9012023774717	-436.86978403180416	1140.6464015644144	833.3956817026545	-438.615847094352	1156.3516391140806	825.7774322491473	-435.0099292929107	1050.0980684418575	864.9174001891386	-390.5648369257602	1085.1769637975056	846.5415998760201	-422.72063577732774	1117.8824457190517	828.1687038451636	-438.94250198194004	1140.4950446561616	816.201676256668	-441.05562248409666	1157.5502569478776	807.6233870559959	-437.11326981255075	1046.7574469674062	859.5434452817469	-390.5162081885338	1075.177835385737	838.5188388972517	-419.55732710820763	1103.0633115506846	821.4707374848089	-433.6587025887908	1124.5453212993687	809.3783743474124	-435.67695324090266	1140.42530359208	801.0523402437801	-431.9606554726975	1042.1282405366474	853.4713354536628	-388.80635369100463	1065.2189028715254	830.5643753536766	-414.7033583127402	1086.4565129472255	815.3908098835506	-425.8091338975807	1101.597314776034	805.834310622122	-427.19123171006464	1115.360377035954	798.0350687338907	-423.8473889208441
136	0.563	1198.941	914.58397	126.699	1253.8908901210166	896.7604938291466	53.10378517556044	1158.5974590388714	500.31935708049724	-43.09577594627483	1141.3421465034223	108.8436530874131	-118.80042798343206	989.7901440157115	32.138282952847256	-31.128293234521202	1158.332360941427	906.2352996039368	211.60820802248796	1066.8090142095502	504.33340397222884	285.8082334128563	993.3995952336279	79.95351037164016	375.83946494543335	871.8574489565844	-2.395507993817075	253.4264272971469	1132.158916347528	1032.0873918247291	79.51578296687595	1070.4263338071587	1088.4712006940547	30.016560973793972	1003.3291161889441	1140.1463256587929	-25.349876903996048	935.6015265190076	1178.1018590880956	-83.72721446268659	862.0819942429024	1219.1216105848248	-144.41888701510223	793.4592957044789	1256.8566672525692	-197.08367655540846	654.3419959884745	1334.244152488602	-205.76736755345595	906.5941255052575	1205.7844093709614	-148.1806677257354	964.3497546589822	1189.3998902077872	-259.4194512058349	1034.8398100876918	938.2422394998794	-278.8190442614186	1037.368755539885	813.0299582508031	-473.6400442260494	1043.6638246326563	826.4745565249635	-498.2568094250456	1028.9594057800275	831.6639899097831	-523.8433125407021	1018.6153543140747	831.931706308578	-541.7740171294206	1009.9030956844709	829.2922915718526	-556.8180867218807	1046.0994198488252	815.6027906124443	-501.30844846427516	1049.3963979863236	807.5999370626175	-542.3182826204968	1039.7768110677866	802.6184005249072	-568.7701985280736	1027.085509098814	803.1907337257695	-580.7961990210212	1012.0542685241613	806.13955068375	-587.7692592222871	1045.1358232892405	806.8081205315316	-500.0871817046676	1047.8337913456633	794.2451563170392	-539.4269511745889	1037.1841912209586	787.675571052826	-567.994487965679	1021.7992866456665	787.8220345182301	-582.3609828132442	1005.3167612928357	790.7840925937277	-589.9215248123403	1044.4918603152998	800.7694704898383	-498.2079367097163	1046.7046408341535	784.1824487759219	-531.920921879983	1037.26072743979	777.317690477804	-556.4548294796142	1022.3348908256562	776.854263810098	-570.1182539653391	1006.7964518365901	779.3527983569132	-577.1350382621861	1042.7013305658932	794.2733174427193	-494.6169062304019	1044.0339470031613	774.9535901141619	-523.4385996825469	1036.2088103201781	767.7526388027376	-542.366727179331	1025.1947306581133	766.5903647679428	-551.9857036936286	1011.3570362134559	768.3293052158094	-558.0016182276835	866.3286877320444	1205.3924344836548	-99.16139620975218	816.1609492344542	1148.4671860887695	2.320020985817067	942.4206133777787	987.6266647283053	-160.90143276382923	1028.162944854319	871.9211807290418	-365.34392934149326	1053.8075572908479	882.1940891211016	-382.1259263700429	1088.841301506428	872.6666149194675	-391.0895286455186	1112.4385576390832	862.9484147208578	-398.2401292651352	1131.4259733045885	852.2091206875589	-404.9783401899512	1052.5103540107878	873.1939778814293	-388.35621220545954	1090.1368348831836	858.8951392620056	-420.6822409846304	1120.4950080496449	843.015334172909	-435.51612474914464	1139.3919046038545	833.5094417452044	-437.2844254119573	1155.0485198981082	825.8886614516932	-433.7201438868822	1049.2225713376943	865.0238531127795	-389.3374472921243	1084.1427657428708	846.6596800365822	-421.40022903178306	1116.7189192674716	828.2925966441037	-437.6019963760139	1139.2530846226034	816.3254716978647	-439.74257784821845	1156.2557963933282	807.7445766028547	-435.8460990191361	1045.8994700250817	859.6537553283493	-389.29595322272047	1074.1928317493916	838.6430069821912	-418.25839549956646	1101.9689275596854	821.6007039891654	-432.34377336842226	1123.3770317376118	809.5086118807823	-434.3893200548925	1139.2084908325123	801.180325972744	-430.7165307921431	1041.2954123013442	853.5855911676343	-387.6012889970255	1064.2850506085408	830.6938785787161	-413.43372271354326	1085.4408027942823	815.5260207902091	-424.5293982923979	1100.5304689124407	805.9702454257446	-425.9327317225809	1114.252147495731	798.1692917190919	-422.628194954891
137	0.567	1198.941	914.58397	126.699	1253.8585225759716	896.7158599750769	53.10069624901592	1158.5765256498082	500.2918328596854	-43.17884419892492	1141.3665986608723	108.81727275305516	-118.89015343571737	989.8164766455977	32.11724499175574	-31.21009652483974	1158.3569842841075	906.2781003251476	211.6162148962005	1066.8289037861823	504.3708619167703	285.78064693225855	993.3815981474634	79.98805177850012	375.7549003169942	871.8461799048803	-2.36311385347826	253.33667823016086	1132.1948830627825	1032.0977183341531	79.49409757754555	1070.4746561033187	1088.472478702079	29.97023508439772	1003.38838945646	1140.1373499247993	-25.41836362120552	935.6664094476296	1178.079855595638	-83.81093218206618	862.152784899589	1219.0856996556015	-144.51935912004376	793.5367750165468	1256.811067359312	-197.19980067025662	654.4385947539279	1334.2210208985548	-205.91570493547403	906.6272251890455	1205.6762814296496	-148.2787957336827	964.2176771794783	1189.0301833177118	-259.3678663906666	1034.408046705303	938.2716643129422	-278.23259139321607	1036.61890411618	812.9137891894582	-472.26747200771865	1042.8875644282264	826.3822426135458	-496.7568317755997	1028.2423862704807	831.5847133918222	-522.2260381056143	1017.9403626140241	831.8594126376469	-540.0793476871879	1009.263801009441	829.2240440983088	-555.0625760791165	1045.3145048272565	815.5060015698837	-499.8103299635176	1048.599697744596	807.5215908675491	-540.6521055190851	1039.019897370348	802.5486276982322	-566.9968248828901	1026.3799699502842	803.1242038734651	-578.9710640520713	1011.4092251024069	806.0743037094808	-585.9113310732714	1044.3556980059093	806.7048221439603	-498.6070518947457	1047.0447370720108	794.1563364943374	-537.7926263054003	1036.4392850340353	787.5951680899786	-566.246104576262	1021.116724723874	787.7451071453607	-580.5515708025488	1004.700546799017	790.7083599496324	-588.0769173819618	1043.7149401917693	800.6611402874	-496.7446888515219	1045.9210746453487	784.082805888949	-530.333844055828	1036.516402983946	777.2244260296927	-554.7715847075381	1021.6511024926757	776.7638433005914	-568.3778516990352	1006.175249840823	779.2632582522764	-575.3623686510334	1041.9322532757346	794.1583854975529	-493.17882073528045	1043.2619800528046	774.8426835711377	-521.9020385847588	1035.4695078449327	767.6452788717204	-540.7587447903277	1024.5001648344712	766.4843361108598	-550.3387424875497	1010.7182540109857	768.2236257954471	-556.3276280784551	866.4349568387453	1205.4401428021495	-99.2539121183591	816.3447037033529	1148.8404173858112	2.219423134882107	942.1912651416428	987.8260263210244	-160.3700981897541	1027.438716246486	871.9497537722807	-364.21679295666206	1052.9610167994367	882.2044338664477	-380.9326781330846	1087.855847985361	872.6610959680337	-389.8938958365094	1111.3602388552385	862.9328318392536	-397.04156689356034	1130.2735606645197	852.1860023619522	-403.7762569232322	1051.6673438120617	873.2059555764348	-387.14416365912433	1089.1229505144179	858.8863995641159	-419.371253177344	1119.3576300647774	842.9933454308338	-434.18005085603454	1138.1853213562845	833.4806663838534	-435.96547492399765	1153.7897786798653	825.8552600588274	-432.43746429721153	1048.3958322300423	865.0393044222861	-388.1274976755886	1083.158164352295	846.6567744711072	-420.0948784849239	1115.6022567261002	828.2757662499258	-436.2699191488507	1138.0542245061347	816.3007002574159	-438.4314864765281	1155.0005037682995	807.7148589169069	-434.5748384345183	1045.0886221620124	859.6721623993126	-388.0895295493333	1073.25442006853	838.6475103069612	-416.96815257829775	1100.9184101537037	821.5936354758803	-431.03105093803725	1122.2488312127434	809.4941954668562	-433.0972791857911	1138.0279781700629	801.161400655196	-429.46215843718363	1040.5075430048842	853.6080953488884	-386.4055203044926	1063.39441067908	830.7061131334484	-412.1660200717549	1084.4656262055435	815.5299324637485	-423.2453557362024	1099.5011744143937	805.9692537634938	-424.6645775672063	1113.177965515353	798.1645675030877	-421.3938556647596
138	0.571	1198.941	914.58397	126.699	1253.825582354415	896.6707640984894	53.09741945544399	1158.565526126943	500.26467425086685	-43.27615660295057	1141.4052254678493	108.79510016157428	-119.01522179689213	989.8570741588507	32.091914754941286	-31.33452665905597	1158.3821720743965	906.3213716708053	211.62443479867505	1066.8509733521846	504.4111772506478	285.7677012052048	993.3706525736393	80.02560267873805	375.68933633297615	871.8426525803955	-2.3309706438022553	253.26742136518618	1132.2309354648983	1032.1080470263207	79.47232680272701	1070.52713780887	1088.482750379985	29.92894382645179	1003.4578403462414	1140.1498629244284	-25.477456876904448	935.7484175251681	1178.0979166900388	-83.88112314120025	862.2477005761382	1219.1089337281494	-144.60179225213292	793.644205838893	1256.8405620672127	-197.2940320506667	654.5626881727867	1334.269486001581	-206.025315861744	906.686296076205	1205.6362692589803	-148.35280420546084	964.1095733855789	1188.728481094995	-259.2907544988062	1034.0084202799476	938.3816221120348	-277.62084426676176	1035.9094794036857	813.2050732142166	-470.91328787030784	1042.15075190951	826.6976411258394	-495.2732598849071	1027.5651006531396	831.9129101336129	-520.6232467793843	1017.3053978352184	832.1944910125746	-538.3978257185942	1008.6648650116764	829.5631090658469	-553.319110807877	1044.5691988880512	815.8171469897961	-498.3284923243946	1047.842163581656	807.8517484581641	-538.9991991336815	1038.3024697462167	802.8873984445694	-565.2347763222089	1025.7143885013948	803.4660017466213	-577.1563734531246	1010.8047204197202	806.4170223980875	-584.0633232550538	1043.615485099683	807.0095213289885	-497.1433567318459	1046.2953494388828	794.4760954669944	-536.1718877832296	1035.7344342382357	787.9234207507279	-564.5092497861243	1020.4747909693658	788.0765610971617	-578.7526192285619	1004.1256192311165	791.0406078068822	-586.242203534124	1042.9781506892684	800.9608359748531	-495.29807735912254	1045.177602600906	784.39177861026	-528.7610102127716	1035.8125551739608	777.5398334768652	-553.1008043503409	1021.0083853856835	777.081831216926	-566.6489327240986	1005.5957322051142	779.5817432491899	-573.6006393235525	1041.2036303790844	794.4514776987692	-491.75769139528023	1042.5306103163264	775.1403422012214	-520.3804266421894	1034.7711608367495	767.9465578757769	-539.1643835089479	1023.8470313503286	766.7867493686833	-548.7046961725383	1010.121473445263	768.5260505314253	-554.6661050531427	866.558573228848	1205.5247111698984	-99.3374751598233	816.5468884750574	1149.2487838847064	2.123456072651019	941.9668865845402	988.0264329011308	-159.8168182224693	1026.7026050492939	871.8972621891652	-363.05688133011046	1052.1126261797901	882.1170961851417	-379.72738008125214	1086.86599569409	872.5379645156322	-388.68842828800285	1110.2741212492706	862.7841096230617	-395.83226379335383	1129.109104389814	852.015363927224	-402.56057615265274	1050.8184338700455	873.1122334087788	-385.9145887250913	1088.1024054391291	858.7305533991138	-418.05086325185255	1118.2083240992138	842.7984522636064	-432.8327811566619	1136.9623447152085	833.2691484180514	-434.6315175858985	1152.5101309911252	825.6351505800644	-431.1347412893231	1047.558560813717	864.9461123741362	-386.8926979250784	1082.1597764834014	846.503286691065	-418.7686731408879	1114.4654507105515	828.0799423171793	-434.91403425369816	1136.8295389195398	816.0849646656297	-437.0914833557503	1153.7142804098144	807.4897827689714	-433.268953716312	1044.2640183685346	859.5808826606346	-386.8529485727918	1072.2966500647524	838.5036700062382	-415.64691000113174	1099.8423683559868	821.4132690111029	-429.68373343430125	1121.0892869169263	809.2948222851891	-431.76516606297315	1136.8111807075643	800.9533382310182	-428.1620595317664	1039.7019298861183	853.5212770915944	-385.17276101005234	1062.478560582761	830.5736168359621	-410.8565476943095	1083.4593718259337	815.3690156209116	-421.91505454451965	1098.4360838423124	805.7948578869086	-423.345378916759	1112.0633551401672	797.9827166825361	-420.1030332127255
